<?xml version="1.0" encoding="utf-8"?>
<svg id="master-artboard" viewBox="0 0 440 440" xmlns="http://www.w3.org/2000/svg" width="440px" height="440px" version="1.1" style="shape-rendering:geometricPrecision; text-rendering:geometricPrecision; image-rendering:optimizeQuality; fill-rule:evenodd; clip-rule:evenodd"><defs><radialGradient id="gradient-0" gradientUnits="objectBoundingBox" cx="0.5" cy="0.5" r="0.5">
                <stop offset="0" style="stop-color: #333333"/>
                <stop offset="1" style="stop-color: #000000"/>
              </radialGradient></defs><rect id="ee-background" x="0" y="0" width="440" height="440" style="fill: white; fill-opacity: 0; pointer-events: none;"/>
 
 <metadata id="CorelCorpID_0Corel-Layer"/>
<g><rect id="rect-1" x="0" y="0" width="1400" height="400" style="fill: rgb(0, 157, 181); fill-opacity: 1; pointer-events: none;" transform="matrix(0.1275285929441452, 0.35850659012794495, -0.35850659012794495, 0.1275285929441452, 806.9117672119064, 420.9146243606393)"/><g transform="matrix(0.27544331550598145, 0, 0, 0.27544331550598145, -10.120109859708236, 96.92046645046662)"><g transform="matrix(0.8476272225379944, -0.5306091904640198, 0.5306091904640198, 0.8476272225379944, -294.0407192123148, 661.3736159018754)"><g transform="matrix(0.5162911415100098, 0, 0, 0.5162911415100098, 522.5805209452064, 192.9753780655674)"><g id="g-7" transform="matrix(1, 0, 0, 1, 0, 0)">
	<g id="g-8">
		<path class="st0" d="M652,46c27.6,0,50,22.4,50,50s-22.4,50-50,50s-50-22.4-50-50S624.4,46,652,46z" style="fill: rgb(0, 157, 181); fill-opacity: 1;"/>
	</g>
</g></g><g transform="matrix(0.7913464903831482, 0, 0, 0.7913464903831482, 257.2887344744423, 238.77219339526258)"><g id="g-13" transform="matrix(1, 0, 0, 1, 0, 0)">
	<g id="g-14">
		<path class="st0" d="M652,46c27.6,0,50,22.4,50,50s-22.4,50-50,50s-50-22.4-50-50S624.4,46,652,46z" style="fill: rgb(0, 157, 181); fill-opacity: 1;"/>
	</g>
</g></g><g transform="matrix(0.3443808853626251, 0, 0, 0.3443808853626251, 718.9017548233787, 175.09674594094574)"><g id="g-1" transform="matrix(1, 0, 0, 1, 0, 0)">
	<g id="g-2">
		<path class="st0" d="M652,46c27.6,0,50,22.4,50,50s-22.4,50-50,50s-50-22.4-50-50S624.4,46,652,46z" style="fill: rgb(0, 157, 181); fill-opacity: 1;"/>
	</g>
</g></g><g transform="matrix(0.24123473465442657, 0, 0, 0.24123473465442657, 861.7936047850126, 176.40323401699155)"><g id="g-15" transform="matrix(1, 0, 0, 1, 0, 0)">
	<g id="g-16">
		<path class="st0" d="M652,46c27.6,0,50,22.4,50,50s-22.4,50-50,50s-50-22.4-50-50S624.4,46,652,46z" style="fill: rgb(0, 157, 181); fill-opacity: 1;"/>
	</g>
</g></g><g transform="matrix(0.5162911415100098, 0, 0, 0.5162911415100098, 405.68150012735987, 392.39112497541635)"><g id="g-9" transform="matrix(1, 0, 0, 1, 0, 0)">
	<g id="g-10">
		<path class="st0" d="M652,46c27.6,0,50,22.4,50,50s-22.4,50-50,50s-50-22.4-50-50S624.4,46,652,46z" style="fill: rgb(0, 157, 181); fill-opacity: 1;"/>
	</g>
</g></g><g transform="matrix(0.3443808853626251, 0, 0, 0.3443808853626251, 540.1153115068464, 487.97315907398297)"><g id="g-23" transform="matrix(1, 0, 0, 1, 0, 0)">
	<g id="g-24">
		<path class="st0" d="M652,46c27.6,0,50,22.4,50,50s-22.4,50-50,50s-50-22.4-50-50S624.4,46,652,46z" style="fill: rgb(0, 157, 181); fill-opacity: 1;"/>
	</g>
</g></g><g transform="matrix(0.24123473465442657, 0, 0, 0.24123473465442657, 633.1531560764652, 554.605546313689)"><g id="g-25" transform="matrix(1, 0, 0, 1, 0, 0)">
	<g id="g-26">
		<path class="st0" d="M652,46c27.6,0,50,22.4,50,50s-22.4,50-50,50s-50-22.4-50-50S624.4,46,652,46z" style="fill: rgb(0, 157, 181); fill-opacity: 1;"/>
	</g>
</g></g></g><g transform="matrix(0.4260541498661041, 0.9047070145606995, -0.9047070145606995, 0.4260541498661041, 729.9207370853637, -602.4907406118728)"><g transform="matrix(0.5162911415100098, 0, 0, 0.5162911415100098, 522.5805209452064, 192.9753780655674)"><g id="g-3" transform="matrix(1, 0, 0, 1, 0, 0)">
	<g id="g-4">
		<path class="st0" d="M652,46c27.6,0,50,22.4,50,50s-22.4,50-50,50s-50-22.4-50-50S624.4,46,652,46z" style="fill: rgb(0, 157, 181); fill-opacity: 1;"/>
	</g>
</g></g><g transform="matrix(0.7913464903831482, 0, 0, 0.7913464903831482, 257.2887344744423, 238.77219339526258)"><g id="g-5" transform="matrix(1, 0, 0, 1, 0, 0)">
	<g id="g-6">
		<path class="st0" d="M652,46c27.6,0,50,22.4,50,50s-22.4,50-50,50s-50-22.4-50-50S624.4,46,652,46z" style="fill: rgb(0, 157, 181); fill-opacity: 1;"/>
	</g>
</g></g><g transform="matrix(0.3443808853626251, 0, 0, 0.3443808853626251, 718.9017548233787, 175.09674594094574)"><g id="g-11" transform="matrix(1, 0, 0, 1, 0, 0)">
	<g id="g-12">
		<path class="st0" d="M652,46c27.6,0,50,22.4,50,50s-22.4,50-50,50s-50-22.4-50-50S624.4,46,652,46z" style="fill: rgb(0, 157, 181); fill-opacity: 1;"/>
	</g>
</g></g><g transform="matrix(0.24123473465442657, 0, 0, 0.24123473465442657, 861.7936047850126, 176.40323401699155)"><g id="g-17" transform="matrix(1, 0, 0, 1, 0, 0)">
	<g id="g-18">
		<path class="st0" d="M652,46c27.6,0,50,22.4,50,50s-22.4,50-50,50s-50-22.4-50-50S624.4,46,652,46z" style="fill: rgb(0, 157, 181); fill-opacity: 1;"/>
	</g>
</g></g><g transform="matrix(0.5162911415100098, 0, 0, 0.5162911415100098, 405.68150012735987, 392.39112497541635)"><g id="g-19" transform="matrix(1, 0, 0, 1, 0, 0)">
	<g id="g-20">
		<path class="st0" d="M652,46c27.6,0,50,22.4,50,50s-22.4,50-50,50s-50-22.4-50-50S624.4,46,652,46z" style="fill: rgb(0, 157, 181); fill-opacity: 1;"/>
	</g>
</g></g><g transform="matrix(0.3443808853626251, 0, 0, 0.3443808853626251, 540.1153115068464, 487.97315907398297)"><g id="g-21" transform="matrix(1, 0, 0, 1, 0, 0)">
	<g id="g-22">
		<path class="st0" d="M652,46c27.6,0,50,22.4,50,50s-22.4,50-50,50s-50-22.4-50-50S624.4,46,652,46z" style="fill: rgb(0, 157, 181); fill-opacity: 1;"/>
	</g>
</g></g><g transform="matrix(0.24123473465442657, 0, 0, 0.24123473465442657, 633.1531560764652, 554.605546313689)"><g id="g-27" transform="matrix(1, 0, 0, 1, 0, 0)">
	<g id="g-28">
		<path class="st0" d="M652,46c27.6,0,50,22.4,50,50s-22.4,50-50,50s-50-22.4-50-50S624.4,46,652,46z" style="fill: rgb(0, 157, 181); fill-opacity: 1;"/>
	</g>
</g></g></g><g transform="matrix(-0.44708824157714844, 0.25821205973625183, -0.25821205973625183, -0.44708824157714844, 1329.8564849453107, 437.0684334358102)"><g id="g-29" transform="matrix(1, 0, 0, 1, 0, 0)">
	<g id="g-30">
		
	<path class="st0" d="M652,46c27.6,0,50,22.4,50,50s-22.4,50-50,50s-50-22.4-50-50S624.4,46,652,46z" style="fill: rgb(0, 157, 181); fill-opacity: 1;"/></g>
</g></g><g transform="matrix(-0.6852761507034302, 0.39577516913414, -0.39577516913414, -0.6852761507034302, 1538.6848603095057, 273.7300496616972)"><g id="g-31" transform="matrix(1, 0, 0, 1, 0, 0)">
	<g id="g-32">
		<path class="st0" d="M652,46c27.6,0,50,22.4,50,50s-22.4,50-50,50s-50-22.4-50-50S624.4,46,652,46z" style="fill: rgb(0, 157, 181); fill-opacity: 1;"/>
	</g>
</g></g><g transform="matrix(-0.2982208728790283, 0.172234907746315, -0.172234907746315, -0.2982208728790283, 1173.7912947473303, 525.7365268986377)"><g id="g-33" transform="matrix(1, 0, 0, 1, 0, 0)">
	<g id="g-34">
		<path class="st0" d="M652,46c27.6,0,50,22.4,50,50s-22.4,50-50,50s-50-22.4-50-50S624.4,46,652,46z" style="fill: rgb(0, 157, 181); fill-opacity: 1;"/>
	</g>
</g></g><g transform="matrix(-0.4470885992050171, 0.25821205973625183, -0.25821205973625183, -0.4470885992050171, 1333.3530670807666, 214.9173342858949)"><g id="g-37" transform="matrix(1, 0, 0, 1, 0, 0)">
	<g id="g-38">
		<path class="st0" d="M652,46c27.6,0,50,22.4,50,50s-22.4,50-50,50s-50-22.4-50-50S624.4,46,652,46z" style="fill: rgb(0, 157, 181); fill-opacity: 1;"/>
	</g>
</g></g><g transform="matrix(-0.2982208728790283, 0.17223481833934784, -0.17223481833934784, -0.2982208728790283, 1169.1351666788794, 199.38112471643447)"><g id="g-39" transform="matrix(1, 0, 0, 1, 0, 0)">
	<g id="g-40">
		<path class="st0" d="M652,46c27.6,0,50,22.4,50,50s-22.4,50-50,50s-50-22.4-50-50S624.4,46,652,46z" style="fill: rgb(0, 157, 181); fill-opacity: 1;"/>
	</g>
</g></g><g transform="matrix(-0.20890018343925476, 0.12064845114946365, -0.12064845114946365, -0.20890018343925476, 1055.2430734408808, 188.2108973327545)"><g id="g-41" transform="matrix(1, 0, 0, 1, 0, 0)">
	<g id="g-42">
		<path class="st0" d="M652,46c27.6,0,50,22.4,50,50s-22.4,50-50,50s-50-22.4-50-50S624.4,46,652,46z" style="fill: rgb(0, 157, 181); fill-opacity: 1;"/>
	</g>
</g></g><g transform="matrix(-0.2965696156024933, -0.42262211441993713, 0.42262211441993713, -0.2965696156024933, 856.6422374439899, 984.4997241645962)"><g id="g-43" transform="matrix(1, 0, 0, 1, 0, 0)">
	<g id="g-44">
		<path class="st0" d="M652,46c27.6,0,50,22.4,50,50s-22.4,50-50,50s-50-22.4-50-50S624.4,46,652,46z" style="fill: rgb(0, 157, 181); fill-opacity: 1;"/>
	</g>
</g></g><g transform="matrix(-0.45456764101982117, -0.6477748155593872, 0.6477748155593872, -0.45456764101982117, 1034.486236884779, 1176.084019425034)"><g id="g-45" transform="matrix(1, 0, 0, 1, 0, 0)">
	<g id="g-46">
		<path class="st0" d="M652,46c27.6,0,50,22.4,50,50s-22.4,50-50,50s-50-22.4-50-50S624.4,46,652,46z" style="fill: rgb(0, 157, 181); fill-opacity: 1;"/>
	</g>
</g></g><g transform="matrix(-0.1978202909231186, -0.2819008231163025, 0.2819008231163025, -0.1978202909231186, 729.2358005415138, 778.0664294381859)"><g id="g-47" transform="matrix(1.0000000000000002, 5.551115123125783e-17, -5.551115123125783e-17, 1.0000000000000002, -199.03213025738341, -65.1739036761764)">
	<g id="g-48">
		<path class="st0" d="M652,46c27.6,0,50,22.4,50,50s-22.4,50-50,50s-50-22.4-50-50S624.4,46,652,46z" style="fill: rgb(0, 157, 181); fill-opacity: 1;"/>
	</g>
</g></g><g transform="matrix(-0.13857077062129974, -0.19746820628643036, 0.19746820628643036, -0.13857077062129974, 678.2249347634588, 749.3485330745135)"><g id="g-49" transform="matrix(1, 0, 0, 1, 0, 0)">
	<g id="g-50">
		<path class="st0" d="M652,46c27.6,0,50,22.4,50,50s-22.4,50-50,50s-50-22.4-50-50S624.4,46,652,46z" style="fill: rgb(0, 157, 181); fill-opacity: 1;"/>
	</g>
</g></g><g transform="matrix(-0.13857077062129974, -0.19746820628643036, 0.19746820628643036, -0.13857077062129974, 1096.1473715349239, 786.2593007761024)"><g id="g-55" transform="matrix(1, 0, 0, 1, 0, 0)">
	<g id="g-56">
		<path class="st0" d="M652,46c27.6,0,50,22.4,50,50s-22.4,50-50,50s-50-22.4-50-50S624.4,46,652,46z" style="fill: rgb(0, 157, 181); fill-opacity: 1;"/>
	</g>
</g></g><g transform="matrix(0.07315151393413544, 0.10424411296844482, -0.10424411296844482, 0.07315151393413544, 850.436182571535, 582.3587820040811)"><g id="g-59" transform="matrix(1, 0, 0, 1, 0, 0)">
	<g id="g-60">
		<path class="st0" d="M652,46c27.6,0,50,22.4,50,50s-22.4,50-50,50s-50-22.4-50-50S624.4,46,652,46z" style="fill: rgb(0, 157, 181); fill-opacity: 1;"/>
	</g>
</g></g><g transform="matrix(0.07315151393413544, 0.10424381494522095, -0.10424381494522095, 0.07315151393413544, 1011.602325069973, 546.240616865176)"><g id="g-57" transform="matrix(1, 0, 0, 1, 0, 0)">
	<g id="g-58">
		<path class="st0" d="M652,46c27.6,0,50,22.4,50,50s-22.4,50-50,50s-50-22.4-50-50S624.4,46,652,46z" style="fill: rgb(0, 157, 181); fill-opacity: 1;"/>
	</g>
</g></g><g transform="matrix(-0.19782017171382904, -0.2819008231163025, 0.2819008231163025, -0.19782017171382904, 1084.0470293774308, 881.6927142647711)"><g id="g-53" transform="matrix(1, 0, 0, 1, 0, 0)">
	<g id="g-54">
		<path class="st0" d="M652,46c27.6,0,50,22.4,50,50s-22.4,50-50,50s-50-22.4-50-50S624.4,46,652,46z" style="fill: rgb(0, 157, 181); fill-opacity: 1;"/>
	</g>
</g></g><g transform="matrix(-0.2965696156024933, -0.42262211441993713, 0.42262211441993713, -0.2965696156024933, 1058.4100657227646, 1021.259185709332)"><g id="g-51" transform="matrix(1, 0, 0, 1, 0, 0)">
	<g id="g-52">
		<path class="st0" d="M652,46c27.6,0,50,22.4,50,50s-22.4,50-50,50s-50-22.4-50-50S624.4,46,652,46z" style="fill: rgb(0, 157, 181); fill-opacity: 1;"/>
	</g>
</g></g><g transform="matrix(-0.20890018343925476, 0.12064916640520096, -0.12064916640520096, -0.20890018343925476, 1066.3989575624146, 582.0695363899922)"><g id="g-35" transform="matrix(1, 0, 0, 1, 0, 0)">
	<g id="g-36">
		<path class="st0" d="M652,46c27.6,0,50,22.4,50,50s-22.4,50-50,50s-50-22.4-50-50S624.4,46,652,46z" style="fill: rgb(0, 157, 181); fill-opacity: 1;"/>
	</g>
</g></g><g transform="matrix(0.07315151393413544, 0.10424411296844482, -0.10424411296844482, 0.07315151393413544, 551.7508099004863, 497.07789567345026)"><g id="g-61" transform="matrix(1, 0, 0, 1, 0, 0)">
	<g id="g-62">
		<path class="st0" d="M652,46c27.6,0,50,22.4,50,50s-22.4,50-50,50s-50-22.4-50-50S624.4,46,652,46z" style="fill: rgb(0, 157, 181); fill-opacity: 1;"/>
	</g>
</g></g></g><g transform="matrix(0.9914823174476624, 0, 0, 0.9914823174476624, -659.7472730799691, -634.6156194989562)"><g id="Layer_2_42_" transform="matrix(1, 0, 0, 1, 0, 0)">
	<g id="Layer_1-2_40_">
		<g>
			<path class="st0" d="M236,1028c-2.1,0-4.2-0.8-5.8-2.4l-44.7-44.7c-3.2-3.2-3.2-8.4-0.1-11.6l0.1-0.1l44.7-44.7&#10;&#9;&#9;&#9;&#9;c1.6-1.6,3.6-2.4,5.8-2.4c0,0,0,0,0,0c2.1,0,4.2,0.8,5.7,2.3l0.2,0.2l44.7,44.7c3.2,3.2,3.2,8.4,0.1,11.6l-0.1,0.1l-44.7,44.7&#10;&#9;&#9;&#9;&#9;C240.2,1027.2,238.1,1028,236,1028z M189.8,973.3L189.8,973.3c-1,1-1,2.4-0.1,3.3l44.7,44.7c0.9,0.9,2.3,0.9,3.2,0l44.7-44.7&#10;&#9;&#9;&#9;&#9;c0.9-0.9,0.9-2.3,0-3.2l-44.8-44.8c-0.4-0.4-1-0.6-1.6-0.6c0,0,0,0,0,0c-0.6,0-1.2,0.2-1.6,0.7L189.8,973.3z" style="fill: rgb(0, 157, 181);"/>
		</g>
	</g>
</g></g><g id="g-64" transform="matrix(2.395940065383911, 2.4520456790924072, -2.4520456790924072, 2.395940065383911, 2033.825011784582, -2686.628986317781)">
		<g>
			<path class="st0" d="M236,1028c-2.1,0-4.2-0.8-5.8-2.4l-44.7-44.7c-3.2-3.2-3.2-8.4-0.1-11.6l0.1-0.1l44.7-44.7&#10;&#9;&#9;&#9;&#9;c1.6-1.6,3.6-2.4,5.8-2.4c0,0,0,0,0,0c2.1,0,4.2,0.8,5.7,2.3l0.2,0.2l44.7,44.7c3.2,3.2,3.2,8.4,0.1,11.6l-0.1,0.1l-44.7,44.7&#10;&#9;&#9;&#9;&#9;C240.2,1027.2,238.1,1028,236,1028z M189.8,973.3L189.8,973.3c-1,1-1,2.4-0.1,3.3l44.7,44.7c0.9,0.9,2.3,0.9,3.2,0l44.7-44.7&#10;&#9;&#9;&#9;&#9;c0.9-0.9,0.9-2.3,0-3.2l-44.8-44.8c-0.4-0.4-1-0.6-1.6-0.6c0,0,0,0,0,0c-0.6,0-1.2,0.2-1.6,0.7L189.8,973.3z" style="fill: rgb(214, 214, 214); stroke: rgb(170, 186, 196); stroke-width: 16; fill-opacity: 1; stroke-opacity: 0.48; paint-order: fill;"/>
		</g>
	</g></g></svg>